<svg width="41" height="40" viewBox="0 0 41 40" fill="none" xmlns="http://www.w3.org/2000/svg">
<path d="M20.4827 39.899L8.939 36.6943L6.36648 7.84111H34.6335L32.0583 36.6899L20.4827 39.899Z" fill="#264DE4"/>
<path d="M29.8537 34.8529L32.0542 10.2002H20.5V37.446L29.8537 34.8529Z" fill="#2965F1"/>
<path d="M12.2639 20.9015L12.581 24.4402H20.5V20.9015H12.2639ZM11.6265 13.7391L11.9482 17.2778H20.5V13.7391H11.6265ZM20.5 30.092L20.4845 30.0961L16.5434 29.0319L16.2915 26.2096H12.7391L13.2348 31.766L20.4837 33.7782L20.5 33.7737V30.092Z" fill="#EBEBEB"/>
<path d="M13.019 0H17.3049V1.79235H14.8114V3.58471H17.3051V5.37695H13.019V0ZM18.1622 0H22.4481V1.55856H19.9545V1.87025H22.4481V5.45496H18.1623V3.81828H20.6559V3.50659H18.1621V0H18.1622ZM23.3054 0H27.5914V1.55856H25.0978V1.87025H27.5914V5.45496H23.3054V3.81828H25.7991V3.50659H23.3055V0H23.3054Z" fill="#EBEBEB"/>
<path d="M28.7135 20.9015L29.3523 13.7391H20.4878V17.2778H25.4742L25.1522 20.9015H20.4878V24.4402H24.8454L24.4345 29.0297L20.4877 30.095V33.7765L27.7423 31.766L27.7955 31.1681L28.6272 21.8517L28.7135 20.9015Z" fill="white"/>
</svg>
