<svg width="62" height="36" viewBox="0 0 62 26" fill="none" xmlns="http://www.w3.org/2000/svg">
<g clip-path="url(#clip0_2_6)">
<path d="M7.05078 25.9648L0.599609 26C0.482422 26 0.423828 25.9414 0.423828 25.8242L0.494141 1.0918C0.494141 0.998051 0.541016 0.951176 0.634766 0.951176L7.36719 0.91602C8.70312 0.880863 9.91016 1.18555 10.9883 1.83008C12.0781 2.47461 12.9453 3.34766 13.5898 4.44922C14.2461 5.53906 14.5742 6.74609 14.5742 8.07031V18.4062C14.5742 19.7891 14.2402 21.0547 13.5723 22.2031C12.8926 23.3398 11.9902 24.248 10.8652 24.9277C9.74023 25.5957 8.46875 25.9414 7.05078 25.9648ZM7.36719 5.22266L4.85352 5.25781L4.81836 21.5703H7.05078C7.94141 21.5703 8.69141 21.2598 9.30078 20.6387C9.91016 20.0176 10.2148 19.2734 10.2148 18.4062V8.03516C10.2148 7.27344 9.93359 6.61133 9.37109 6.04883C8.80859 5.47461 8.14062 5.19922 7.36719 5.22266ZM21.6582 26H17.5801C17.4629 26 17.4043 25.9414 17.4043 25.8242L17.4395 1.0918C17.4395 0.998051 17.4863 0.951176 17.5801 0.951176H21.623C21.7168 0.951176 21.7637 0.998051 21.7637 1.0918L21.7988 25.8242C21.7988 25.9414 21.752 26 21.6582 26ZM36.2438 26H32.1657C32.072 26 32.0251 25.9414 32.0251 25.8242L32.0954 1.0918C32.0954 0.998051 32.1423 0.951176 32.236 0.951176H39.5134C40.8141 0.951176 42.0095 1.26758 43.0993 1.90039C44.1891 2.5332 45.0563 3.38281 45.7009 4.44922C46.3571 5.51562 46.6852 6.72266 46.6852 8.07031C46.6852 8.94922 46.5505 9.74609 46.2809 10.4609C46.0114 11.1758 45.695 11.7793 45.3317 12.2715C44.9802 12.7637 44.6579 13.127 44.3649 13.3613C45.6657 14.8027 46.3161 16.4961 46.3161 18.4414L46.3512 25.8242C46.3512 25.9414 46.2927 26 46.1755 26H42.0973C42.0036 26 41.9567 25.9648 41.9567 25.8945V18.4414C41.9567 17.5742 41.652 16.8242 41.0427 16.1914C40.4333 15.5586 39.6833 15.2422 38.7927 15.2422H36.4196L36.3845 25.8242C36.3845 25.9414 36.3376 26 36.2438 26ZM39.5134 5.25781H36.4196V10.918H39.5134C40.2516 10.918 40.9079 10.6426 41.4821 10.0918C42.068 9.54102 42.361 8.86719 42.361 8.07031C42.361 7.30859 42.0798 6.65234 41.5173 6.10156C40.9548 5.53906 40.2868 5.25781 39.5134 5.25781ZM56.8981 26H52.7673C52.6852 26 52.6442 25.9531 52.6442 25.8594L52.6794 15.6289L47.863 1.0918C47.8395 0.998051 47.8747 0.951176 47.9684 0.951176H51.9762C52.0934 0.951176 52.1637 0.998051 52.1872 1.0918L54.8415 10.7773L57.5485 1.0918C57.572 0.998051 57.6305 0.951176 57.7243 0.951176H61.7673C61.861 0.951176 61.8962 0.998051 61.8727 1.0918L57.0036 15.4883L57.0387 25.8594C57.0387 25.9531 56.9919 26 56.8981 26Z" fill="white"/>
<path d="M36.129 26.0488H32.0684C31.9747 26.0488 31.9278 25.9902 31.9278 25.873V21.6543H24.1407C24.0469 21.6543 24 21.5957 24 21.4785V17.5234L31.8399 1.14063C31.8985 1.04687 31.9747 1 32.0684 1H36.129C36.1993 1 36.2344 1.04687 36.2344 1.14063L36.2696 17.3652V21.6543C36.2696 21.6543 36.3633 17.3652 36.2696 17.3652V21.6543V25.873C36.2696 25.9902 36.2227 26.0488 36.129 26.0488ZM28.254 17.3652H31.9278V9.52539L28.254 17.3652Z" fill="#7CEAB7"/>
<path d="M7.05078 25.9648L7.05296 26.3649L7.05739 26.3648L7.05078 25.9648ZM0.599609 26V26.4H0.601789L0.599609 26ZM0.423828 25.8242L0.023828 25.8231V25.8242H0.423828ZM0.494141 1.0918L0.894141 1.09293V1.0918H0.494141ZM0.634766 0.951173V1.35118L0.636854 1.35117L0.634766 0.951173ZM7.36719 0.916017L7.36928 1.3161L7.37771 1.31588L7.36719 0.916017ZM10.9883 1.83008L10.783 2.17341L10.7847 2.17438L10.9883 1.83008ZM13.5898 4.44922L13.2446 4.65124L13.2472 4.65556L13.5898 4.44922ZM13.5723 22.2031L13.9156 22.4084L13.918 22.4042L13.5723 22.2031ZM10.8652 24.9277L11.0695 25.2717L11.0721 25.2701L10.8652 24.9277ZM7.36719 5.22266L7.37278 5.62267L7.3793 5.62247L7.36719 5.22266ZM4.85352 5.25781L4.84792 4.85785L4.45436 4.86336L4.45352 5.25695L4.85352 5.25781ZM4.81836 21.5703L4.41836 21.5695L4.4175 21.9703H4.81836V21.5703ZM9.37109 6.04883L9.08534 6.32875L9.08825 6.33167L9.37109 6.04883ZM7.0486 25.5648L0.59743 25.6L0.601789 26.4L7.05296 26.3649L7.0486 25.5648ZM0.599609 25.6C0.602674 25.6 0.678441 25.601 0.750616 25.6732C0.822791 25.7454 0.823828 25.8212 0.823828 25.8242H0.023828C0.023828 25.9445 0.0541618 26.1081 0.184931 26.2389C0.315699 26.3697 0.479358 26.4 0.599609 26.4V25.6ZM0.823827 25.8254L0.894141 1.09293L0.0941421 1.09066L0.023828 25.8231L0.823827 25.8254ZM0.894141 1.0918C0.894141 1.10658 0.890174 1.19114 0.81214 1.26917C0.734105 1.34721 0.649549 1.35118 0.634766 1.35118V0.551173C0.526233 0.551173 0.371364 0.578577 0.246454 0.703486C0.121545 0.828396 0.0941405 0.983265 0.0941405 1.0918H0.894141ZM0.636854 1.35117L7.36928 1.3161L7.3651 0.516022L0.632677 0.551178L0.636854 1.35117ZM7.37771 1.31588C8.64289 1.28258 9.77424 1.57033 10.783 2.17341L11.1935 1.48675C10.0461 0.800775 8.76336 0.479137 7.35666 0.516155L7.37771 1.31588ZM10.7847 2.17438C11.8155 2.784 12.6341 3.60789 13.2446 4.65124L13.9351 4.24721C13.2565 3.08744 12.3408 2.16522 11.1919 1.48578L10.7847 2.17438ZM13.2472 4.65556C13.8643 5.6805 14.1742 6.81569 14.1742 8.07031H14.9742C14.9742 6.6765 14.6278 5.39763 13.9325 4.24288L13.2472 4.65556ZM14.1742 8.07031V18.4062H14.9742V8.07031H14.1742ZM14.1742 18.4062C14.1742 19.7214 13.8575 20.9172 13.2265 22.002L13.918 22.4042C14.623 21.1922 14.9742 19.8567 14.9742 18.4062H14.1742ZM13.229 21.9978C12.5826 23.0788 11.7269 23.9398 10.6584 24.5854L11.0721 25.2701C12.2535 24.5563 13.2026 23.6008 13.9156 22.4084L13.229 21.9978ZM10.661 24.5838C9.60086 25.2133 8.39854 25.5425 7.04417 25.5649L7.05739 26.3648C8.53896 26.3403 9.87971 25.9781 11.0695 25.2717L10.661 24.5838ZM7.36159 4.8227L4.84792 4.85785L4.85911 5.65777L7.37278 5.62267L7.36159 4.8227ZM4.45352 5.25695L4.41836 21.5695L5.21836 21.5712L5.25351 5.25867L4.45352 5.25695ZM4.81836 21.9703H7.05078V21.1703H4.81836V21.9703ZM7.05078 21.9703C8.04597 21.9703 8.89974 21.6186 9.5863 20.9188L9.01526 20.3585C8.48307 20.901 7.83684 21.1703 7.05078 21.1703V21.9703ZM9.5863 20.9188C10.2688 20.2232 10.6148 19.3786 10.6148 18.4062H9.81484C9.81484 19.1683 9.55154 19.8119 9.01526 20.3585L9.5863 20.9188ZM10.6148 18.4062V8.03516H9.81484V18.4062H10.6148ZM10.6148 8.03516C10.6148 7.16222 10.2877 6.39979 9.65394 5.76599L9.08825 6.33167C9.57944 6.82286 9.81484 7.38465 9.81484 8.03516H10.6148ZM9.65684 5.76892C9.01958 5.11839 8.24499 4.79587 7.35507 4.82284L7.3793 5.62247C8.03626 5.60257 8.59759 5.83084 9.08534 6.32875L9.65684 5.76892ZM21.6582 25.6H17.5801V26.4H21.6582V25.6ZM17.5801 25.6C17.5831 25.6 17.6589 25.601 17.7311 25.6732C17.8033 25.7454 17.8043 25.8212 17.8043 25.8242L17.0043 25.8237C17.0043 25.944 17.0346 26.1081 17.1654 26.2389C17.2962 26.3697 17.4598 26.4 17.5801 26.4V25.6ZM17.8043 25.8242L17.8395 1.09237L17.0395 1.09123L17.0043 25.8237L17.8043 25.8242ZM17.8395 1.09237C17.8395 1.10715 17.8355 1.19114 17.7575 1.26917C17.6794 1.34721 17.5949 1.35117 17.5801 1.35117V0.551173C17.4715 0.551173 17.3167 0.578577 17.1918 0.703486C17.0669 0.828396 17.0395 0.982695 17.0395 1.09123L17.8395 1.09237ZM17.5801 1.35117H21.623V0.551173H17.5801V1.35117ZM21.623 1.35117C21.6083 1.35117 21.5237 1.34721 21.4457 1.26917C21.3676 1.19114 21.3637 1.10658 21.3637 1.0918H22.1637C22.1637 0.983265 22.1363 0.828396 22.0114 0.703486C21.8864 0.578577 21.7316 0.551173 21.623 0.551173V1.35117ZM21.3637 1.0918L21.3988 25.8248L22.1988 25.8242L22.1637 1.0918H21.3637ZM21.3988 25.8248C21.3988 25.8407 21.3939 25.7779 21.4513 25.7062C21.4822 25.6675 21.5224 25.6379 21.5659 25.6198C21.6069 25.6027 21.6407 25.6 21.6582 25.6V26.4C21.7934 26.4 21.9581 26.3533 22.076 26.2059C22.1803 26.0756 22.1988 25.9255 22.1988 25.8242L21.3988 25.8248ZM31.959 21.6055H32.359V21.2055H31.959V21.6055ZM24.0312 17.4746L23.6704 17.3019L23.6312 17.3838V17.4746H24.0312ZM31.8711 1.0918L31.5319 0.879798L31.52 0.898859L31.5103 0.919133L31.8711 1.0918ZM36.3008 17.3164L35.9008 17.3173V21.4055L36.3008 17.7164V17.3164ZM36.3008 21.6055V21.2055H35.9008V21.6055H36.3008ZM28.2852 17.3164L27.923 17.1467L27.656 17.7164H28.2852V17.3164ZM31.959 17.3164V17.7164H32.359V17.3164H31.959ZM31.959 9.47656H32.359L31.5968 9.30683L31.959 9.47656ZM36.1602 25.6H32.0996V26.4H36.1602V25.6ZM32.0996 25.6C32.1171 25.6 32.1509 25.6027 32.1919 25.6198C32.2354 25.6379 32.2756 25.6675 32.3065 25.7062C32.3639 25.7779 32.359 25.8401 32.359 25.8242H31.559C31.559 25.9255 31.5775 26.0756 31.6818 26.2059C31.7997 26.3533 31.9645 26.4 32.0996 26.4V25.6ZM32.359 25.8242V21.6055H31.559V25.8242H32.359ZM31.959 21.2055H24.1719V22.0055H31.959V21.2055ZM24.1719 21.2055C24.1894 21.2055 24.2232 21.2082 24.2642 21.2253C24.3077 21.2434 24.3478 21.273 24.3788 21.3116C24.4362 21.3834 24.4313 21.4455 24.4313 21.4297H23.6312C23.6312 21.531 23.6498 21.681 23.7541 21.8114C23.872 21.9588 24.0367 22.0055 24.1719 22.0055V21.2055ZM24.4313 21.4297V17.4746H23.6312V21.4297H24.4313ZM24.3921 17.6473L32.2319 1.26446L31.5103 0.919133L23.6704 17.3019L24.3921 17.6473ZM32.2103 1.3038C32.2145 1.29712 32.2072 1.31137 32.1818 1.32699C32.1537 1.34426 32.123 1.35117 32.0996 1.35117V0.551173C31.8413 0.551173 31.6483 0.693612 31.5319 0.879798L32.2103 1.3038ZM32.0996 1.35117H36.1602V0.551173H32.0996V1.35117ZM36.1602 1.35117C36.1337 1.35117 36.0917 1.34675 36.0438 1.32549C35.9937 1.30319 35.9508 1.26833 35.9193 1.22633C35.8894 1.18658 35.8765 1.14955 35.871 1.12729C35.8655 1.10545 35.8656 1.0918 35.8656 1.0918H36.6656C36.6656 1.00646 36.6517 0.869525 36.5593 0.746329C36.4506 0.601493 36.2929 0.551173 36.1602 0.551173V1.35117ZM35.8656 1.0918L35.9008 17.3173L36.7008 17.3155L36.6656 1.0918H35.8656ZM35.9008 21.6055V25.8242H36.7008V21.6055H35.9008ZM35.9008 25.8242C35.9008 25.8401 35.8959 25.7779 35.9533 25.7062C35.9842 25.6675 36.0244 25.6379 36.0678 25.6198C36.1089 25.6027 36.1426 25.6 36.1602 25.6V26.4C36.2953 26.4 36.46 26.3533 36.578 26.2059C36.6823 26.0756 36.7008 25.9255 36.7008 25.8242H35.9008ZM28.2852 17.7164H31.959V16.9164H28.2852V17.7164ZM32.359 17.3164V9.47656H31.559V17.3164H32.359ZM31.5968 9.30683L27.923 17.1467L28.6474 17.4861L32.3212 9.64629L31.5968 9.30683ZM32.0251 25.8242L31.6251 25.8231V25.8242H32.0251ZM32.0954 1.0918L32.4954 1.09293V1.0918H32.0954ZM45.7009 4.44922L45.3585 4.65613L45.3602 4.65886L45.7009 4.44922ZM45.3317 12.2715L45.0098 12.0339L45.0062 12.039L45.3317 12.2715ZM44.3649 13.3613L44.115 13.049L43.7836 13.3142L44.068 13.6293L44.3649 13.3613ZM46.3161 18.4414H45.9161V18.4433L46.3161 18.4414ZM46.3512 25.8242H46.7513L46.7512 25.8223L46.3512 25.8242ZM36.4196 15.2422V14.8422H36.0209L36.0196 15.2409L36.4196 15.2422ZM36.3845 25.8242L35.9845 25.8229V25.8242H36.3845ZM36.4196 5.25781V4.85781H36.0196V5.25781H36.4196ZM36.4196 10.918H36.0196V11.318H36.4196V10.918ZM41.4821 10.0918L41.2081 9.80033L41.2052 9.80312L41.4821 10.0918ZM41.5173 6.10156L41.2344 6.38442L41.2374 6.38737L41.5173 6.10156ZM36.2438 25.6H32.1657V26.4H36.2438V25.6ZM32.1657 25.6C32.1832 25.6 32.217 25.6027 32.258 25.6198C32.3015 25.6379 32.3417 25.6675 32.3726 25.7062C32.43 25.7779 32.4251 25.8401 32.4251 25.8242H31.6251C31.6251 25.9255 31.6436 26.0756 31.7479 26.2059C31.8658 26.3533 32.0305 26.4 32.1657 26.4V25.6ZM32.4251 25.8254L32.4954 1.09293L31.6954 1.09066L31.6251 25.8231L32.4251 25.8254ZM32.4954 1.0918C32.4954 1.10658 32.4914 1.19114 32.4134 1.26917C32.3354 1.34721 32.2508 1.35117 32.236 1.35117V0.551173C32.1275 0.551173 31.9726 0.578577 31.8477 0.703486C31.7228 0.828396 31.6954 0.983265 31.6954 1.0918H32.4954ZM32.236 1.35117H39.5134V0.551173H32.236V1.35117ZM39.5134 1.35117C40.746 1.35117 41.8716 1.65009 42.8984 2.24631L43.3002 1.55448C42.1473 0.885065 40.8823 0.551173 39.5134 0.551173V1.35117ZM42.8984 2.24631C43.9309 2.8458 44.7491 3.64789 45.3585 4.65613L46.0432 4.24232C45.3635 3.11775 44.4474 2.22061 43.3002 1.55448L42.8984 2.24631ZM45.3602 4.65886C45.9747 5.6574 46.2852 6.79081 46.2852 8.07031H47.0852C47.0852 6.6545 46.7395 5.37385 46.0415 4.23958L45.3602 4.65886ZM46.2852 8.07031C46.2852 8.90817 46.1568 9.65632 45.9067 10.3198L46.6552 10.6021C46.9441 9.83587 47.0852 8.99027 47.0852 8.07031H46.2852ZM45.9067 10.3198C45.647 11.0084 45.3466 11.5776 45.0098 12.0339L45.6535 12.509C46.0433 11.981 46.3758 11.3432 46.6552 10.6021L45.9067 10.3198ZM45.0062 12.039C44.6647 12.5171 44.3672 12.8473 44.115 13.049L44.6148 13.6737C44.9486 13.4066 45.2956 13.0102 45.6572 12.504L45.0062 12.039ZM44.068 13.6293C45.3023 14.9971 45.9161 16.5949 45.9161 18.4414H46.7161C46.7161 16.3973 46.0291 14.6084 44.6619 13.0933L44.068 13.6293ZM45.9161 18.4433L45.9513 25.8261L46.7512 25.8223L46.7161 18.4395L45.9161 18.4433ZM45.9512 25.8242C45.9512 25.8212 45.9523 25.7454 46.0245 25.6732C46.0966 25.601 46.1724 25.6 46.1755 25.6V26.4C46.2957 26.4 46.4594 26.3697 46.5901 26.2389C46.7209 26.1081 46.7513 25.9445 46.7513 25.8242H45.9512ZM46.1755 25.6H42.0973V26.4H46.1755V25.6ZM42.0973 25.6C42.0973 25.6 42.111 25.5999 42.1328 25.6054C42.1551 25.6109 42.1921 25.6238 42.2319 25.6536C42.2739 25.6851 42.3087 25.728 42.331 25.7782C42.3523 25.8261 42.3567 25.8681 42.3567 25.8945H41.5567C41.5567 26.0273 41.607 26.185 41.7519 26.2936C41.8751 26.386 42.012 26.4 42.0973 26.4V25.6ZM42.3567 25.8945V18.4414H41.5567V25.8945H42.3567ZM42.3567 18.4414C42.3567 17.4692 42.0109 16.6202 41.3308 15.9139L40.7545 16.4689C41.2932 17.0282 41.5567 17.6792 41.5567 18.4414H42.3567ZM41.3308 15.9139C40.6448 15.2016 39.7903 14.8422 38.7927 14.8422V15.6422C39.5763 15.6422 40.2217 15.9156 40.7545 16.4689L41.3308 15.9139ZM38.7927 14.8422H36.4196V15.6422H38.7927V14.8422ZM36.0196 15.2409L35.9225 21.2055L35.9845 25.8229L36.7845 25.8255L36.8196 15.2435L36.0196 15.2409ZM35.9845 25.8242C35.9845 25.8401 35.9795 25.7779 36.0369 25.7062C36.0679 25.6675 36.108 25.6379 36.1515 25.6198C36.1925 25.6027 36.2263 25.6 36.2438 25.6V26.4C36.379 26.4 36.5437 26.3533 36.6616 26.2059C36.7659 26.0756 36.7845 25.9255 36.7845 25.8242H35.9845ZM39.5134 4.85781H36.4196V5.65781H39.5134V4.85781ZM36.0196 5.25781V10.918H36.8196V5.25781H36.0196ZM36.4196 11.318H39.5134V10.518H36.4196V11.318ZM39.5134 11.318C40.3633 11.318 41.1167 10.9966 41.759 10.3805L41.2052 9.80312C40.6991 10.2886 40.14 10.518 39.5134 10.518V11.318ZM41.7561 10.3832C42.4216 9.75765 42.761 8.97871 42.761 8.07031H41.961C41.961 8.75567 41.7145 9.32436 41.2081 9.80033L41.7561 10.3832ZM42.761 8.07031C42.761 7.19707 42.4336 6.43895 41.7971 5.81576L41.2374 6.38737C41.726 6.86573 41.961 7.42012 41.961 8.07031H42.761ZM41.8001 5.81872C41.165 5.1836 40.3962 4.85781 39.5134 4.85781V5.65781C40.1774 5.65781 40.7445 5.89454 41.2344 6.38442L41.8001 5.81872ZM52.6442 25.8594L52.2442 25.858V25.8594H52.6442ZM52.6794 15.6289L53.0794 15.6303L53.0796 15.565L53.0591 15.5031L52.6794 15.6289ZM47.863 1.0918L47.4749 1.18881L47.4785 1.20336L47.4833 1.2176L47.863 1.0918ZM52.1872 1.0918L51.799 1.18884L51.8014 1.19752L52.1872 1.0918ZM54.8415 10.7773L54.4557 10.8831L54.8377 12.2769L55.2267 10.885L54.8415 10.7773ZM57.5485 1.0918L57.9339 1.19951L57.9366 1.18881L57.5485 1.0918ZM61.8727 1.0918L62.2516 1.21995L62.2569 1.20457L62.2608 1.18881L61.8727 1.0918ZM57.0036 15.4883L56.6247 15.3601L56.6034 15.4231L56.6036 15.4896L57.0036 15.4883ZM57.0387 25.8594H57.4388L57.4387 25.858L57.0387 25.8594ZM56.8981 25.6H52.7673V26.4H56.8981V25.6ZM52.7673 25.6C52.8028 25.6 52.8983 25.6126 52.976 25.7014C53.0448 25.7801 53.0442 25.8567 53.0442 25.8594H52.2442C52.2442 25.9558 52.2641 26.1028 52.3739 26.2282C52.4927 26.3639 52.6497 26.4 52.7673 26.4V25.6ZM53.0442 25.8607L53.0794 15.6303L52.2794 15.6275L52.2442 25.858L53.0442 25.8607ZM53.0591 15.5031L48.2427 0.965996L47.4833 1.2176L52.2997 15.7547L53.0591 15.5031ZM48.251 0.994784C48.2522 0.999291 48.2582 1.02455 48.255 1.06349C48.2515 1.10544 48.2366 1.1666 48.1918 1.22633C48.0975 1.352 47.9713 1.35117 47.9684 1.35117V0.551173C47.8719 0.551173 47.6812 0.573779 47.5518 0.746329C47.4259 0.914189 47.4526 1.09958 47.4749 1.18881L48.251 0.994784ZM47.9684 1.35117H51.9762V0.551173H47.9684V1.35117ZM51.9762 1.35117C51.9854 1.35117 51.9464 1.35344 51.895 1.31915C51.8355 1.27946 51.8077 1.22366 51.799 1.18884L52.5752 0.994784C52.5431 0.866211 52.4686 0.740077 52.3388 0.653509C52.217 0.572346 52.0843 0.551173 51.9762 0.551173V1.35117ZM51.8014 1.19752L54.4557 10.8831L55.2273 10.6716L52.573 0.986077L51.8014 1.19752ZM55.2267 10.885L57.9339 1.19951L57.1633 0.984127L54.4562 10.6697L55.2267 10.885ZM57.9366 1.18881C57.9332 1.20228 57.9165 1.25342 57.8599 1.29868C57.8021 1.34494 57.7451 1.35117 57.7243 1.35117V0.551173C57.6098 0.551173 57.4766 0.580843 57.3602 0.673982C57.245 0.766115 57.1873 0.887566 57.1605 0.994784L57.9366 1.18881ZM57.7243 1.35117H61.7673V0.551173H57.7243V1.35117ZM61.7673 1.35117C61.7644 1.35117 61.6382 1.352 61.5439 1.22633C61.4991 1.1666 61.4842 1.10544 61.4807 1.06349C61.4775 1.02455 61.4836 0.999291 61.4847 0.994784L62.2608 1.18881C62.2831 1.09958 62.3098 0.914189 62.1839 0.746329C62.0545 0.573779 61.8638 0.551173 61.7673 0.551173V1.35117ZM61.4938 0.963642L56.6247 15.3601L57.3825 15.6164L62.2516 1.21995L61.4938 0.963642ZM56.6036 15.4896L56.6388 25.8607L57.4387 25.858L57.4036 15.4869L56.6036 15.4896ZM56.6387 25.8594C56.6387 25.8446 56.6427 25.76 56.7208 25.682C56.7988 25.604 56.8833 25.6 56.8981 25.6V26.4C57.0067 26.4 57.1615 26.3726 57.2864 26.2477C57.4113 26.1228 57.4388 25.9679 57.4388 25.8594H56.6387Z" fill="black"/>
</g>
<defs>
<clipPath id="clip0_2_6">
<rect width="62" height="26" fill="white"/>
</clipPath>
</defs>
</svg>