<svg width="41" height="40" viewBox="0 0 41 40" fill="none" xmlns="http://www.w3.org/2000/svg">
<g clip-path="url(#clip0_9_6)">
<path d="M39.7458 18.2184L22.2804 0.754402C21.2755 -0.251467 19.6443 -0.251467 18.6381 0.754402L15.0116 4.3814L19.6117 8.98169C20.6811 8.62061 21.9069 8.86271 22.7589 9.71496C23.6154 10.5725 23.8557 11.8088 23.4856 12.8818L27.9193 17.3157C28.9919 16.946 30.2295 17.1849 31.086 18.0429C32.2835 19.2401 32.2835 21.1799 31.086 22.3774C29.8884 23.5753 27.9486 23.5753 26.7503 22.3774C25.8499 21.4763 25.6272 20.1533 26.0833 19.0439L21.9484 14.9088L21.948 25.7902C22.24 25.9347 22.5155 26.1276 22.7587 26.3698C23.9558 27.5668 23.9558 29.5063 22.7587 30.7054C21.5613 31.9023 19.6206 31.9023 18.4244 30.7054C17.2271 29.5065 17.2271 27.5669 18.4244 26.3698C18.7203 26.0744 19.0627 25.8509 19.428 25.701V14.7185C19.0625 14.5693 18.7205 14.3474 18.4242 14.0497C17.5173 13.1434 17.2989 11.8124 17.764 10.6987L13.2292 6.16299L1.25461 18.1377C0.248464 19.1444 0.248464 20.7756 1.25461 21.7816L18.719 39.2456C19.7245 40.2515 21.3551 40.2515 22.362 39.2456L39.7456 21.8641C40.7515 20.8577 40.7515 19.226 39.7456 18.2199" fill="#F05133"/>
</g>
<defs>
<clipPath id="clip0_9_6">
<rect width="40" height="40" fill="white" transform="translate(0.5)"/>
</clipPath>
</defs>
</svg>
