<svg width="41" height="40" viewBox="0 0 41 40" fill="none" xmlns="http://www.w3.org/2000/svg">
<path d="M34.6335 7.84111L32.0583 36.6899L20.4827 39.8989L8.93901 36.6943L6.36649 7.84111H34.6335Z" fill="#E44D26"/>
<path d="M20.5 37.446L29.8537 34.8529L32.0542 10.2002H20.5V37.446Z" fill="#F16529"/>
<path d="M15.4939 17.2778H20.5V13.7391H11.6265L11.7112 14.6884L12.581 24.4402H20.5V20.9015H15.8173L15.4939 17.2778ZM16.2915 26.2096H12.7391L13.2349 31.766L20.4837 33.7782L20.5 33.7737V30.092L20.4845 30.0961L16.5434 29.0319L16.2915 26.2096Z" fill="#EBEBEB"/>
<path d="M8.9964 0H10.7947V1.77673H12.4398V0H14.2383V5.38039H12.4399V3.57873H10.7948V5.38039H8.99651V0H8.9964ZM16.603 1.78427H15.0201V0H19.9857V1.78427H18.4017V5.38039H16.6034V1.78427H16.6033H16.603ZM20.7737 0H22.6488L23.8023 1.89053L24.9546 0H26.8305V5.38039H25.0395V2.71357L23.8023 4.62659H23.7712L22.5332 2.71357V5.38039H20.7737V0ZM27.7255 0H29.5244V3.60199H32.0534V5.38039H27.7254V0H27.7255Z" fill="black"/>
<path d="M20.4878 24.4402H24.8454L24.4345 29.0297L20.4877 30.095V33.7765L27.7423 31.766L27.7955 31.1681L28.6272 21.8517L28.7135 20.9015H20.4878V24.4402ZM20.4878 17.2691V17.2778H29.0355L29.1064 16.4824L29.2678 14.6884L29.3523 13.7391H20.4878V17.2693V17.2691Z" fill="white"/>
</svg>
