<svg width="36" height="35" viewBox="0 0 36 35" fill="none" xmlns="http://www.w3.org/2000/svg">
<g clip-path="url(#clip0_9_14)">
<path d="M35.5 0H0.5V35H35.5V0Z" fill="#F7DF1E"/>
<path d="M24.0111 27.3439C24.7161 28.495 25.6333 29.3411 27.2556 29.3411C28.6183 29.3411 29.4889 28.66 29.4889 27.7189C29.4889 26.5911 28.5944 26.1917 27.0944 25.5356L26.2722 25.1828C23.8989 24.1717 22.3222 22.905 22.3222 20.2272C22.3222 17.7606 24.2017 15.8828 27.1389 15.8828C29.23 15.8828 30.7333 16.6106 31.8167 18.5161L29.2556 20.1606C28.6917 19.1494 28.0833 18.7511 27.1389 18.7511C26.1756 18.7511 25.565 19.3622 25.565 20.1606C25.565 21.1472 26.1761 21.5467 27.5872 22.1578L28.4094 22.51C31.2039 23.7083 32.7817 24.93 32.7817 27.6767C32.7817 30.6378 30.4556 32.26 27.3317 32.26C24.2772 32.26 22.3039 30.8044 21.3383 28.8967L24.0111 27.3439ZM12.3928 27.6289C12.9094 28.5456 13.3794 29.3206 14.5094 29.3206C15.59 29.3206 16.2717 28.8978 16.2717 27.2539V16.0706H19.5606V27.2983C19.5606 30.7039 17.5639 32.2539 14.6494 32.2539C12.0161 32.2539 10.4911 30.8911 9.71556 29.2497L12.3928 27.6289Z" fill="black"/>
</g>
<defs>
<clipPath id="clip0_9_14">
<rect width="35" height="35" fill="white" transform="translate(0.5)"/>
</clipPath>
</defs>
</svg>
