<svg width="11" height="22" viewBox="0 0 11 22" fill="none" xmlns="http://www.w3.org/2000/svg">
<path d="M5.112 8.692C5.416 8.74 5.692 8.864 5.94 9.064C6.196 9.264 6.396 9.512 6.54 9.808C6.692 10.104 6.768 10.42 6.768 10.756C6.768 11.18 6.66 11.564 6.444 11.908C6.228 12.244 5.912 12.512 5.496 12.712C5.088 12.904 4.604 13 4.044 13H0.924V4.636H3.924C4.492 4.636 4.976 4.732 5.376 4.924C5.776 5.108 6.076 5.36 6.276 5.68C6.476 6 6.576 6.36 6.576 6.76C6.576 7.256 6.44 7.668 6.168 7.996C5.904 8.316 5.552 8.548 5.112 8.692ZM2.016 8.248H3.852C4.364 8.248 4.76 8.128 5.04 7.888C5.32 7.648 5.46 7.316 5.46 6.892C5.46 6.468 5.32 6.136 5.04 5.896C4.76 5.656 4.356 5.536 3.828 5.536H2.016V8.248ZM3.948 12.1C4.492 12.1 4.916 11.972 5.22 11.716C5.524 11.46 5.676 11.104 5.676 10.648C5.676 10.184 5.516 9.82 5.196 9.556C4.876 9.284 4.448 9.148 3.912 9.148H2.016V12.1H3.948Z" fill="white"/>
<path d="M5.112 8.692L5.0809 8.59696L5.0964 8.79078L5.112 8.692ZM5.94 9.064L5.87722 9.14185L5.87844 9.1428L5.94 9.064ZM6.54 9.808L6.45006 9.85176L6.45104 9.85368L6.54 9.808ZM6.444 11.908L6.52812 11.9621L6.52869 11.9612L6.444 11.908ZM5.496 12.712L5.53858 12.8025L5.53933 12.8021L5.496 12.712ZM0.924 13H0.824V13.1H0.924V13ZM0.924 4.636V4.536H0.824V4.636H0.924ZM5.376 4.924L5.33272 5.01416L5.33421 5.01485L5.376 4.924ZM6.276 5.68L6.1912 5.733L6.1912 5.733L6.276 5.68ZM6.168 7.996L6.09102 7.93217L6.09086 7.93236L6.168 7.996ZM2.016 8.248H1.916V8.348H2.016V8.248ZM5.04 5.896L4.97492 5.97193L4.97492 5.97193L5.04 5.896ZM2.016 5.536V5.436H1.916V5.536H2.016ZM5.22 11.716L5.28441 11.7925L5.28441 11.7925L5.22 11.716ZM5.196 9.556L5.13123 9.6322L5.13236 9.63314L5.196 9.556ZM2.016 9.148V9.048H1.916V9.148H2.016ZM2.016 12.1H1.916V12.2H2.016V12.1ZM5.0964 8.79078C5.38249 8.83595 5.64235 8.95242 5.87723 9.14184L6.00278 8.98616C5.74165 8.77558 5.44951 8.64405 5.1276 8.59322L5.0964 8.79078ZM5.87844 9.1428C6.12227 9.3333 6.31265 9.56925 6.45008 9.85175L6.62992 9.76425C6.47935 9.45475 6.26973 9.1947 6.00156 8.9852L5.87844 9.1428ZM6.45104 9.85368C6.59571 10.1354 6.668 10.4357 6.668 10.756H6.868C6.868 10.4043 6.78829 10.0726 6.62896 9.76232L6.45104 9.85368ZM6.668 10.756C6.668 11.1621 6.56486 11.5275 6.35931 11.8548L6.52869 11.9612C6.75514 11.6005 6.868 11.1979 6.868 10.756H6.668ZM6.35988 11.8539C6.15536 12.1721 5.85464 12.4286 5.45267 12.6219L5.53933 12.8021C5.96936 12.5954 6.30064 12.3159 6.52812 11.9621L6.35988 11.8539ZM5.45342 12.6215C5.06156 12.8059 4.59275 12.9 4.044 12.9V13.1C4.61525 13.1 5.11444 13.0021 5.53858 12.8025L5.45342 12.6215ZM4.044 12.9H0.924V13.1H4.044V12.9ZM1.024 13V4.636H0.824V13H1.024ZM0.924 4.736H3.924V4.536H0.924V4.736ZM3.924 4.736C4.48108 4.736 4.94947 4.83019 5.33273 5.01415L5.41927 4.83385C5.00253 4.63381 4.50292 4.536 3.924 4.536V4.736ZM5.33421 5.01485C5.71951 5.19209 6.00317 5.43215 6.1912 5.733L6.3608 5.627C6.14883 5.28785 5.83249 5.02391 5.41779 4.83315L5.33421 5.01485ZM6.1912 5.733C6.38066 6.03614 6.476 6.37757 6.476 6.76H6.676C6.676 6.34243 6.57134 5.96386 6.3608 5.627L6.1912 5.733ZM6.476 6.76C6.476 7.23671 6.34577 7.62498 6.09102 7.93217L6.24498 8.05983C6.53424 7.71102 6.676 7.27529 6.676 6.76H6.476ZM6.09086 7.93236C5.84029 8.23609 5.50504 8.45815 5.0809 8.59696L5.1431 8.78704C5.59896 8.63785 5.96771 8.39591 6.24514 8.05964L6.09086 7.93236ZM2.016 8.348H3.852V8.148H2.016V8.348ZM3.852 8.348C4.37864 8.348 4.801 8.22456 5.10508 7.96393L4.97492 7.81207C4.719 8.03144 4.34936 8.148 3.852 8.148V8.348ZM5.10508 7.96393C5.41069 7.70198 5.56 7.34033 5.56 6.892H5.36C5.36 7.29167 5.22931 7.59402 4.97492 7.81207L5.10508 7.96393ZM5.56 6.892C5.56 6.44367 5.41069 6.08202 5.10508 5.82007L4.97492 5.97193C5.22931 6.18998 5.36 6.49233 5.36 6.892H5.56ZM5.10508 5.82007C4.80051 5.55901 4.36973 5.436 3.828 5.436V5.636C4.34227 5.636 4.71949 5.75299 4.97492 5.97193L5.10508 5.82007ZM3.828 5.436H2.016V5.636H3.828V5.436ZM1.916 5.536V8.248H2.116V5.536H1.916ZM3.948 12.2C4.50689 12.2 4.9567 12.0685 5.28441 11.7925L5.15559 11.6395C4.8753 11.8755 4.47711 12 3.948 12V12.2ZM5.28441 11.7925C5.61444 11.5146 5.776 11.1286 5.776 10.648H5.576C5.576 11.0794 5.43356 11.4054 5.15559 11.6395L5.28441 11.7925ZM5.776 10.648C5.776 10.1581 5.60558 9.76426 5.25964 9.47886L5.13236 9.63314C5.42642 9.87574 5.576 10.2099 5.576 10.648H5.776ZM5.26077 9.47981C4.91815 9.18859 4.46501 9.048 3.912 9.048V9.248C4.43099 9.248 4.83385 9.37941 5.13124 9.63219L5.26077 9.47981ZM3.912 9.048H2.016V9.248H3.912V9.048ZM1.916 9.148V12.1H2.116V9.148H1.916ZM2.016 12.2H3.948V12H2.016V12.2Z" fill="black"/>
<path d="M8.112 12.692C8.416 12.74 8.692 12.864 8.94 13.064C9.196 13.264 9.396 13.512 9.54 13.808C9.692 14.104 9.768 14.42 9.768 14.756C9.768 15.18 9.66 15.564 9.444 15.908C9.228 16.244 8.912 16.512 8.496 16.712C8.088 16.904 7.604 17 7.044 17H3.924V8.636H6.924C7.492 8.636 7.976 8.732 8.376 8.924C8.776 9.108 9.076 9.36 9.276 9.68C9.476 10 9.576 10.36 9.576 10.76C9.576 11.256 9.44 11.668 9.168 11.996C8.904 12.316 8.552 12.548 8.112 12.692ZM5.016 12.248H6.852C7.364 12.248 7.76 12.128 8.04 11.888C8.32 11.648 8.46 11.316 8.46 10.892C8.46 10.468 8.32 10.136 8.04 9.896C7.76 9.656 7.356 9.536 6.828 9.536H5.016V12.248ZM6.948 16.1C7.492 16.1 7.916 15.972 8.22 15.716C8.524 15.46 8.676 15.104 8.676 14.648C8.676 14.184 8.516 13.82 8.196 13.556C7.876 13.284 7.448 13.148 6.912 13.148H5.016V16.1H6.948Z" fill="#B6B0FF"/>
<path d="M8.112 12.692L8.0809 12.597L8.0964 12.7908L8.112 12.692ZM8.94 13.064L8.87722 13.1419L8.87844 13.1428L8.94 13.064ZM9.54 13.808L9.45006 13.8518L9.45104 13.8537L9.54 13.808ZM9.444 15.908L9.52812 15.9621L9.52869 15.9612L9.444 15.908ZM8.496 16.712L8.53858 16.8025L8.53933 16.8021L8.496 16.712ZM3.924 17H3.824V17.1H3.924V17ZM3.924 8.636V8.536H3.824V8.636H3.924ZM8.376 8.924L8.33272 9.01416L8.33421 9.01485L8.376 8.924ZM9.276 9.68L9.1912 9.733L9.1912 9.733L9.276 9.68ZM9.168 11.996L9.09102 11.9322L9.09086 11.9324L9.168 11.996ZM5.016 12.248H4.916V12.348H5.016V12.248ZM8.04 9.896L7.97492 9.97193L7.97492 9.97193L8.04 9.896ZM5.016 9.536V9.436H4.916V9.536H5.016ZM8.22 15.716L8.28441 15.7925L8.28441 15.7925L8.22 15.716ZM8.196 13.556L8.13123 13.6322L8.13236 13.6331L8.196 13.556ZM5.016 13.148V13.048H4.916V13.148H5.016ZM5.016 16.1H4.916V16.2H5.016V16.1ZM8.0964 12.7908C8.38249 12.8359 8.64235 12.9524 8.87723 13.1418L9.00278 12.9862C8.74165 12.7756 8.44951 12.6441 8.1276 12.5932L8.0964 12.7908ZM8.87844 13.1428C9.12227 13.3333 9.31265 13.5693 9.45008 13.8517L9.62992 13.7643C9.47935 13.4547 9.26973 13.1947 9.00156 12.9852L8.87844 13.1428ZM9.45104 13.8537C9.59571 14.1354 9.668 14.4357 9.668 14.756H9.868C9.868 14.4043 9.78829 14.0726 9.62896 13.7623L9.45104 13.8537ZM9.668 14.756C9.668 15.1621 9.56486 15.5275 9.35931 15.8548L9.52869 15.9612C9.75514 15.6005 9.868 15.1979 9.868 14.756H9.668ZM9.35988 15.8539C9.15536 16.1721 8.85464 16.4286 8.45267 16.6219L8.53933 16.8021C8.96936 16.5954 9.30064 16.3159 9.52812 15.9621L9.35988 15.8539ZM8.45342 16.6215C8.06156 16.8059 7.59275 16.9 7.044 16.9V17.1C7.61525 17.1 8.11444 17.0021 8.53858 16.8025L8.45342 16.6215ZM7.044 16.9H3.924V17.1H7.044V16.9ZM4.024 17V8.636H3.824V17H4.024ZM3.924 8.736H6.924V8.536H3.924V8.736ZM6.924 8.736C7.48108 8.736 7.94947 8.83019 8.33273 9.01415L8.41927 8.83385C8.00253 8.63381 7.50292 8.536 6.924 8.536V8.736ZM8.33421 9.01485C8.71951 9.19209 9.00317 9.43215 9.1912 9.733L9.3608 9.627C9.14883 9.28785 8.83249 9.02391 8.41779 8.83315L8.33421 9.01485ZM9.1912 9.733C9.38066 10.0361 9.476 10.3776 9.476 10.76H9.676C9.676 10.3424 9.57134 9.96386 9.3608 9.627L9.1912 9.733ZM9.476 10.76C9.476 11.2367 9.34577 11.625 9.09102 11.9322L9.24498 12.0598C9.53424 11.711 9.676 11.2753 9.676 10.76H9.476ZM9.09086 11.9324C8.84029 12.2361 8.50504 12.4581 8.0809 12.597L8.1431 12.787C8.59896 12.6379 8.96771 12.3959 9.24514 12.0596L9.09086 11.9324ZM5.016 12.348H6.852V12.148H5.016V12.348ZM6.852 12.348C7.37864 12.348 7.801 12.2246 8.10508 11.9639L7.97492 11.8121C7.719 12.0314 7.34936 12.148 6.852 12.148V12.348ZM8.10508 11.9639C8.41069 11.702 8.56 11.3403 8.56 10.892H8.36C8.36 11.2917 8.22931 11.594 7.97492 11.8121L8.10508 11.9639ZM8.56 10.892C8.56 10.4437 8.41069 10.082 8.10508 9.82007L7.97492 9.97193C8.22931 10.19 8.36 10.4923 8.36 10.892H8.56ZM8.10508 9.82007C7.80051 9.55901 7.36973 9.436 6.828 9.436V9.636C7.34227 9.636 7.71949 9.75299 7.97492 9.97193L8.10508 9.82007ZM6.828 9.436H5.016V9.636H6.828V9.436ZM4.916 9.536V12.248H5.116V9.536H4.916ZM6.948 16.2C7.50689 16.2 7.9567 16.0685 8.28441 15.7925L8.15559 15.6395C7.8753 15.8755 7.47711 16 6.948 16V16.2ZM8.28441 15.7925C8.61444 15.5146 8.776 15.1286 8.776 14.648H8.576C8.576 15.0794 8.43356 15.4054 8.15559 15.6395L8.28441 15.7925ZM8.776 14.648C8.776 14.1581 8.60558 13.7643 8.25964 13.4789L8.13236 13.6331C8.42642 13.8757 8.576 14.2099 8.576 14.648H8.776ZM8.26077 13.4798C7.91815 13.1886 7.46501 13.048 6.912 13.048V13.248C7.43099 13.248 7.83385 13.3794 8.13124 13.6322L8.26077 13.4798ZM6.912 13.048H5.016V13.248H6.912V13.048ZM4.916 13.148V16.1H5.116V13.148H4.916ZM5.016 16.2H6.948V16H5.016V16.2Z" fill="black"/>
<path d="M5 13C7.5 13.5 8.5 12.5 11 11.5V17H5V13Z" fill="#1E1E1E"/>
</svg>
