<svg width="46" height="45" viewBox="0 0 46 45" fill="none" xmlns="http://www.w3.org/2000/svg">
<path d="M22.5275 10.1925C15.26 10.4234 13.1 15.615 12.605 18.4275C13.25 17.3849 15.2825 15.0975 18.275 15.0975C21.7625 15.0975 24.4175 18.99 26.0375 20.205C28.0057 21.6811 31.9605 23.6302 37.1525 22.05C41.2925 20.79 43.2125 16.3949 43.6325 14.31C41.63 17.0325 38.5925 18.6677 34.835 16.74C32.2475 15.4125 30.3125 9.945 22.5275 10.1925Z" fill="#07B6D5"/>
<path d="M12.245 22.545C4.9775 22.7759 2.8175 27.9675 2.3225 30.78C2.9675 29.7374 5 27.45 7.9925 27.45C11.48 27.45 14.135 31.3425 15.755 32.5575C17.7232 34.0336 21.678 35.9827 26.87 34.4025C31.01 33.1425 32.93 28.7474 33.35 26.6625C31.3475 29.385 28.31 31.0202 24.5525 29.0925C21.965 27.765 20.03 22.2975 12.245 22.545Z" fill="#07B6D5"/>
</svg>
